<svg xmlns="http://www.w3.org/2000/svg" viewBox="0 0 100 100" fill="none">
  <defs>
    <linearGradient id="bgGrad" x1="0%" y1="0%" x2="100%" y2="100%">
      <stop offset="0%" stop-color="#2c1810"/>
      <stop offset="100%" stop-color="#0e0e0e"/>
    </linearGradient>
    <linearGradient id="goldGrad" x1="0%" y1="0%" x2="100%" y2="100%">
      <stop offset="0%" stop-color="#FFD700"/>
      <stop offset="50%" stop-color="#FFA500"/>
      <stop offset="100%" stop-color="#FF6B00"/>
    </linearGradient>
  </defs>

  <rect x="3" y="3" width="94" height="94" rx="18" fill="url(#bgGrad)" stroke="url(#goldGrad)" stroke-width="3"/>

  <g fill="url(#goldGrad)">
    <path d="M 22 25 L 38 25 L 38 28 L 33 28 L 33 65 Q 33 72 28 72 Q 23 72 22 67 L 25 65 Q 26 68 28 68 Q 30 68 30 65 L 30 28 L 22 28 Z"/>
    <path d="M 44 25 L 62 25 Q 76 25 76 38 Q 76 47 68 50 L 78 75 L 73 75 L 64 51 L 50 51 L 50 75 L 44 75 Z M 50 30 L 50 46 L 62 46 Q 70 46 70 38 Q 70 30 62 30 Z" fill-rule="evenodd"/>
  </g>

  <circle cx="20" cy="20" r="1.5" fill="url(#goldGrad)" opacity="0.6"/>
  <circle cx="80" cy="20" r="1.5" fill="url(#goldGrad)" opacity="0.6"/>
  <circle cx="20" cy="80" r="1.5" fill="url(#goldGrad)" opacity="0.6"/>
  <circle cx="80" cy="80" r="1.5" fill="url(#goldGrad)" opacity="0.6"/>
</svg>
